<svg width="24" height="32" viewBox="0 0 24 32" fill="none" xmlns="http://www.w3.org/2000/svg">
<g clip-path="url(#clip0_101_150)">
<path fill-rule="evenodd" clip-rule="evenodd" d="M5.25 16C5.25 16.8284 4.57843 17.5 3.75 17.5C2.92157 17.5 2.25 16.8284 2.25 16C2.25 15.1716 2.92157 14.5 3.75 14.5C4.57843 14.5 5.25 15.1716 5.25 16ZM3.75 8.5C2.92157 8.5 2.25 9.17157 2.25 10C2.25 10.8284 2.92157 11.5 3.75 11.5C4.57843 11.5 5.25 10.8284 5.25 10C5.25 9.17157 4.57843 8.5 3.75 8.5ZM3.75 20.5C2.92157 20.5 2.25 21.1716 2.25 22C2.25 22.8284 2.92157 23.5 3.75 23.5C4.57843 23.5 5.25 22.8284 5.25 22C5.25 21.1716 4.57843 20.5 3.75 20.5ZM20.25 14.5H8.25C7.83579 14.5 7.5 14.8358 7.5 15.25V16.75C7.5 17.1642 7.83579 17.5 8.25 17.5H20.25C20.6642 17.5 21 17.1642 21 16.75V15.25C21 14.8358 20.6642 14.5 20.25 14.5ZM20.25 8.5H8.25C7.83579 8.5 7.5 8.83579 7.5 9.25V10.75C7.5 11.1642 7.83579 11.5 8.25 11.5H20.25C20.6642 11.5 21 11.1642 21 10.75V9.25C21 8.83579 20.6642 8.5 20.25 8.5ZM20.25 20.5H8.25C7.83579 20.5 7.5 20.8358 7.5 21.25V22.75C7.5 23.1642 7.83579 23.5 8.25 23.5H20.25C20.6642 23.5 21 23.1642 21 22.75V21.25C21 20.8358 20.6642 20.5 20.25 20.5Z" fill="#0D141C"/>
</g>
<defs>
<clipPath id="clip0_101_150">
<rect width="24" height="24" fill="white" transform="translate(0 4)"/>
</clipPath>
</defs>
</svg>
